HIERARCHY
ROOT pelvis
{
  OFFSET 0 100 0
  CHANNELS 6 Xposition Yposition Zposition Zrotation Xrotation Yrotation
  JOINT pelvis_right_femur
  {
    OFFSET -10.78128 -3.44521 -0.5502486
    CHANNELS 3 Zrotation Xrotation Yrotation
    JOINT right_femur_tibia
    {
      OFFSET -0.8047443 -44.0398 -0.1307829
      CHANNELS 3 Zrotation Xrotation Yrotation
      JOINT right_tibia_foot
      {
        OFFSET 3.006224 -47.83518 -5
        CHANNELS 3 Zrotation Xrotation Yrotation
        End Site
        {
          OFFSET 0 -5 15
        }
      }
    }
  }
  JOINT pelvis_left_femur
  {
    OFFSET 10.78128 -3.44521 -0.5502486
    CHANNELS 3 Zrotation Xrotation Yrotation
    JOINT left_femur_tibia
    {
      OFFSET 0.8047443 -44.0398 -0.1307829
      CHANNELS 3 Zrotation Xrotation Yrotation
      JOINT left_tibia_foot
      {
        OFFSET -4.370144 -48.10324 -4.275266
        CHANNELS 3 Zrotation Xrotation Yrotation
        End Site
        {
          OFFSET 0 -5 15
        }
      }
    }
  }
  JOINT pelvis_spine1
  {
    OFFSET 0 6.468898 -3.129235
    CHANNELS 3 Zrotation Xrotation Yrotation
    JOINT spine1
    {
      OFFSET 0 23.15396 4.99043
      CHANNELS 3 Zrotation Xrotation Yrotation
      JOINT spine2
      {
        OFFSET 0 20.79997 -5.064912
        CHANNELS 3 Zrotation Xrotation Yrotation
        JOINT neck
        {
          OFFSET 0 14.38658 9.616178
          CHANNELS 3 Zrotation Xrotation Yrotation
          End Site
          {
            OFFSET 0 20 0
          }
        }
      }
      JOINT right_manubrium
      {
        OFFSET -5.722621 16.35077 3.967754
        CHANNELS 3 Zrotation Xrotation Yrotation
        JOINT right_clavicle
        {
          OFFSET -13.16364 1.694482 -4.693211
          CHANNELS 3 Zrotation Xrotation Yrotation
          JOINT right_humerus
          {
            OFFSET -28.5034 -0.3100689 -2.792744
            CHANNELS 3 Zrotation Xrotation Yrotation
            JOINT right_radius
            {
              OFFSET -25.15693 0.02248979 -1.271978
              CHANNELS 3 Zrotation Xrotation Yrotation
              End Site
              {
                OFFSET -15 0 0
              }
            }
          }
        }
      }
      JOINT left_manubrium
      {
        OFFSET 5.722621 16.35077 3.967754
        CHANNELS 3 Zrotation Xrotation Yrotation
        JOINT left_clavicle
        {
          OFFSET 13.16364 1.694482 -4.693211
          CHANNELS 3 Zrotation Xrotation Yrotation
          JOINT left_humerus
          {
            OFFSET 29.39168 -1.063119 -2.237045
            CHANNELS 3 Zrotation Xrotation Yrotation
            JOINT left_radius
            {
              OFFSET 24.59957 -0.9528479 0.9047498
              CHANNELS 3 Zrotation Xrotation Yrotation
              End Site
              {
                OFFSET 15 -0 -0
              }
            }
          }
        }
      }
    }
  }
}
MOTION
Frames: 16
Frame Time: 0.0416666666667
0 103.5113 0 1.236611 -2.758485 0.8445551 0.6842914 -15.96066 4.719664 6.569525e-09 42.38342 -3.653769e-09 -2.201658 -5.344139 -4.094637 -6.783188 8.318042 -16.86452 -8.011524e-09 1.828397 2.619038e-09 3.380707 -18.2043 21.06066 -3.793507 -1.078788 3.509004 1.097756 8.72403 -6.455387 1.683939 22.20149 7.183678 2.988212 -20.97446 9.168657 4.524325 -17.77934 10.47289 85.44117 32.37753 -15.4181 2.815949e-09 1.706994e-09 14.74529 -15.27147 10.46298 9.287909 5.303722 -17.82156 -2.992564 -89.13043 26.2571 16.69599 -4.09505e-10 1.083003e-09 -16.42731 3.775147 12.39376 9.818756
0.6455695 103.3081 3.93335 1.288245 -2.565135 1.686384 0.6132943 -17.52502 4.738407 7.245821e-09 43.24922 -4.087774e-09 -2.169588 -5.091191 -4.250113 -6.948469 9.804223 -17.31228 -8.559104e-09 0.8181015 2.762464e-09 3.567797 -18.92245 21.17637 -3.913073 -1.115104 3.324379 1.178383 8.658555 -6.64094 1.665802 22.29751 7.322408 3.044421 -21.1893 9.324328 4.684836 -17.62563 10.46971 86.17615 32.70194 -16.13271 2.944991e-09 1.75779e-09 14.4466 -15.02953 10.43797 9.141129 5.417758 -17.98187 -2.982208 -89.36925 26.57883 16.37186 -4.362809e-10 1.132322e-09 -16.92625 3.790791 12.55269 9.89492
1.309241 103.1033 7.823884 1.300637 -2.381909 2.559551 0.6590812 -19.27305 4.687286 7.705812e-09 43.34035 -4.362213e-09 -2.23426 -4.793995 -4.413028 -7.036379 11.41244 -17.5933 -8.880511e-09 0.5839397 2.8951e-09 3.673889 -19.50958 21.10516 -3.960917 -1.145796 3.122969 1.285677 8.620743 -6.852652 1.645307 22.3416 7.419309 3.090849 -21.36454 9.420419 4.782341 -17.38526 10.46066 86.85515 32.89656 -16.97788 2.956317e-09 1.722033e-09 13.93194 -14.73513 10.42054 8.901249 5.539471 -18.23341 -3.017598 -89.28504 26.77004 15.80034 -4.497614e-10 1.135791e-09 -17.60998 3.932271 12.70479 9.775906
1.966522 102.9035 11.69759 1.271691 -2.224092 3.435032 0.8324293 -21.14535 4.571093 7.892024e-09 42.60138 -4.43198e-09 -2.405468 -4.468244 -4.578394 -7.045524 13.07655 -17.69073 -8.942323e-09 1.230908 3.019667e-09 3.687095 -19.93493 20.84732 -3.929548 -1.170056 2.917218 1.418572 8.62384 -7.088256 1.623748 22.34623 7.470975 3.128026 -21.50547 9.454153 4.810232 -17.07756 10.45677 87.52527 32.94842 -17.95754 2.836584e-09 1.59521e-09 13.21832 -14.4136 10.42043 8.580575 5.667469 -18.59 -3.103982 -88.93941 26.80876 15.01731 -4.4879e-10 1.088805e-09 -18.47786 4.209971 12.85177 9.453906
2.593972 102.716 15.57706 1.203149 -2.09428 4.283643 1.120789 -23.06655 4.395707 7.801624e-09 41.03585 -4.296785e-09 -2.671831 -4.118292 -4.735754 -6.980447 14.73627 -17.5922 -8.745972e-09 2.70835 3.127294e-09 3.600773 -20.17238 20.3902 -3.818432 -1.186534 2.709545 1.570767 8.656785 -7.333016 1.601622 22.2884 7.469396 3.149357 -21.58674 9.415195 4.763333 -16.69498 10.44593 88.05254 32.84786 -18.98736 2.58854e-09 1.384836e-09 12.31724 -14.05749 10.42603 8.179421 5.791783 -19.01833 -3.234594 -88.24791 26.68208 14.01376 -4.349586e-10 9.92982e-10 -19.48048 4.608989 12.97342 8.934323
3.17776 102.5455 19.48563 1.108259 -2.006329 5.080893 1.49025 -24.84398 4.188575 7.482845e-09 38.85963 -4.006413e-09 -3.003455 -3.784095 -4.870487 -6.860144 16.22458 -17.32472 -8.327551e-09 4.83318 3.196962e-09 3.432544 -20.21206 19.80094 -3.644008 -1.194777 2.523547 1.726789 8.719604 -7.564791 1.58131 22.18836 7.420595 3.155794 -21.61313 9.315698 4.652857 -16.28937 10.43654 88.43782 32.62005 -19.97819 2.241669e-09 1.120336e-09 11.33737 -13.71381 10.44097 7.748147 5.901692 -19.48086 -3.395443 -87.35584 26.40516 12.92719 -4.116414e-10 8.604551e-10 -20.51723 5.085129 13.06204 8.28354
3.711695 102.3952 23.44723 0.9993746 -1.965284 5.807976 1.913151 -26.39411 3.972908 7.011083e-09 36.30408 -3.628177e-09 -3.376775 -3.490953 -4.979965 -6.70564 17.47191 -16.93565 -7.739066e-09 7.420513 3.213924e-09 3.210084 -20.08422 19.15274 -3.426324 -1.196309 2.372856 1.878405 8.814913 -7.777073 1.564059 22.07915 7.339188 3.153489 -21.60901 9.177705 4.497529 -15.90637 10.44176 88.77164 32.30284 -20.9133 1.827038e-09 8.275264e-10 10.36249 -13.42003 10.47347 7.327462 5.996118 -19.96438 -3.576304 -86.4461 26.01383 11.87755 -3.823382e-10 7.035846e-10 -21.5369 5.604948 13.12572 7.563414
4.202602 102.2653 27.48393 0.8961022 -1.976885 6.456132 2.34319 -27.56991 3.780612 6.473685e-09 33.74006 -3.235634e-09 -3.751524 -3.279511 -5.059193 -6.542347 18.35674 -16.49731 -7.061781e-09 10.16096 3.169076e-09 2.97442 -19.83474 18.55856 -3.19752 -1.192791 2.279033 2.011044 8.944034 -7.956349 1.552103 22.00774 7.246823 3.150758 -21.60741 9.034199 4.325896 -15.61599 10.47815 89.17046 31.95103 -21.7498 1.398764e-09 5.442492e-10 9.527304 -13.23295 10.53484 6.981622 6.072019 -20.44003 -3.759181 -85.77609 25.57864 11.04296 -3.511862e-10 5.428537e-10 -22.44772 6.111484 13.17678 6.873604
4.668124 102.1536 31.61833 0.8134125 -2.054584 7.020273 2.751017 -28.17011 3.6282 5.884924e-09 31.38624 -2.847941e-09 -4.100358 -3.194448 -5.096191 -6.375645 18.70169 -16.03421 -6.319333e-09 12.88681 3.049387e-09 2.744233 -19.45478 18.09312 -2.973909 -1.182905 2.268508 2.109128 9.111556 -8.081376 1.548291 22.0016 7.150752 3.149962 -21.61876 8.899538 4.148945 -15.47772 10.55677 89.66918 31.58695 -22.41066 9.909735e-10 2.922425e-10 8.947271 -13.20742 10.6356 6.765897 6.120478 -20.87605 -3.931651 -85.50743 25.14065 10.56572 -3.186267e-10 3.903526e-10 -23.15213 6.561495 13.2163 6.282371
5.131203 102.0578 35.86287 0.7598354 -2.195115 7.498877 3.105904 -28.07504 3.514844 5.256495e-09 29.3625 -2.47402e-09 -4.395645 -3.248627 -5.080249 -6.203319 18.41589 -15.55156 -5.535821e-09 15.42031 2.850769e-09 2.526438 -18.93388 17.77258 -2.765661 -1.164675 2.346432 2.160329 9.300536 -8.129966 1.553522 22.04039 7.047578 3.145157 -21.61806 8.7704 3.969819 -15.49512 10.66219 90.12245 31.22422 -22.78513 6.311386e-10 8.479049e-11 8.668129 -13.34247 10.76249 6.695166 6.129881 -21.21792 -4.079393 -85.56952 24.71879 10.4629 -2.847637e-10 2.553782e-10 -23.56294 6.91581 13.22749 5.826784
5.61242 101.9765 40.2542 0.7289831 -2.439145 7.873539 3.464588 -27.12399 3.420315 4.454517e-09 27.35968 -2.04095e-09 -4.683253 -3.483263 -4.99952 -5.982107 17.31443 -14.95595 -4.545879e-09 18.20754 2.515421e-09 2.282885 -18.14767 17.5721 -2.537021 -1.132516 2.547022 2.164593 9.553904 -8.0967 1.570969 22.14614 6.917655 3.135788 -21.60744 8.625602 3.755541 -15.70839 10.82202 90.6343 30.79921 -22.89731 2.634364e-10 -1.12043e-10 8.702772 -13.70208 10.94726 6.789683 6.095515 -21.51553 -4.226312 -86.05771 24.23976 10.79381 -2.414064e-10 1.161525e-10 -23.70131 7.222494 13.21209 5.450365
6.113046 101.9171 44.8349 0.6940974 -2.78948 8.106827 3.898598 -25.43547 3.288713 3.384111e-09 24.79438 -1.503135e-09 -5.022713 -3.855948 -4.853285 -5.65272 15.48712 -14.11377 -3.15663e-09 21.75091 1.95555e-09 1.955217 -16.98383 17.33279 -2.234905 -1.080868 2.850053 2.137597 9.87358 -7.989629 1.59841 22.24515 6.721516 3.107001 -21.52602 8.40851 3.455908 -16.02654 11.01235 90.99038 30.22308 -22.76508 -1.982795e-10 -3.533543e-10 8.875754 -14.21917 11.17488 6.966918 6.013733 -21.79969 -4.39976 -86.59189 23.57779 11.32642 -1.817275e-10 -5.979103e-11 -23.66823 7.560457 13.13852 5.007227
6.634066 101.888 49.66568 0.6527158 -3.279843 8.152713 4.436005 -22.83215 3.106825 1.999799e-09 21.55515 -8.711281e-10 -5.433444 -4.412907 -4.631552 -5.165187 12.75065 -12.9734 -1.204097e-09 26.28364 1.033761e-09 1.531773 -15.35982 17.08047 -1.843081 -1.00452 3.288922 2.07307 10.29175 -7.798511 1.639335 22.36822 6.45066 3.061174 -21.38448 8.113456 3.055554 -16.5041 11.25757 91.30584 29.46447 -22.38841 -7.775581e-10 -6.534258e-10 9.243181 -14.96234 11.47007 7.265993 5.878625 -22.09607 -4.611743 -87.31966 22.69495 12.15759 -1.004747e-10 -2.81864e-10 -23.44512 7.945669 13.00921 4.48857
7.181081 101.8998 54.75835 0.6174299 -3.853443 7.992203 4.959216 -19.30046 2.88755 4.807933e-10 18.18761 -2.560907e-10 -5.809035 -5.121616 -4.327986 -4.530709 9.178089 -11.63736 1.141222e-09 30.96255 -2.5167e-10 1.066596 -13.39703 16.86202 -1.419904 -0.9050652 3.827338 1.947409 10.72049 -7.486861 1.69075 22.43753 6.118037 2.986893 -21.12256 7.753731 2.595831 -17.0846 11.48826 91.16054 28.61801 -21.54496 -1.361673e-09 -9.525295e-10 9.854028 -15.84077 11.7597 7.67988 5.674357 -22.23901 -4.806991 -87.93333 21.68889 13.21749 -5.353456e-12 -5.079616e-10 -22.84869 8.250318 12.7856 4.019201
7.756593 101.9589 60.10396 0.5888253 -4.459062 7.62843 5.420852 -15.17574 2.659107 -1.023023e-09 15.11554 2.788601e-10 -6.108609 -5.926154 -3.97605 -3.789247 5.108116 -10.24774 3.691228e-09 35.29852 -1.821176e-09 0.6134362 -11.31179 16.74263 -1.015227 -0.7926763 4.420715 1.771438 11.12828 -7.089604 1.748368 22.47892 5.767071 2.899164 -20.7939 7.381007 2.132161 -17.74265 11.69634 90.71859 27.77283 -20.36799 -1.88177e-09 -1.218598e-09 10.68598 -16.79828 12.02497 8.19152 5.426816 -22.23165 -4.965755 -88.51723 20.67751 14.46501 9.556025e-11 -7.113965e-10 -21.94221 8.44091 12.50802 3.668459
8.369847 102.0631 65.64513 0.5838291 -5.019601 7.102202 5.696952 -10.70122 2.482481 -2.321666e-09 13.06927 6.994224e-10 -6.227864 -6.762381 -3.593084 -3.037428 0.8377296 -9.002246 5.953024e-09 38.32178 -3.338857e-09 0.2408267 -9.363504 16.79745 -0.7093604 -0.68008 5.012443 1.539046 11.43274 -6.610693 1.80657 22.46735 5.443347 2.802136 -20.40596 7.048072 1.737339 -18.42628 11.83472 89.83767 27.0571 -18.8084 -2.207087e-09 -1.37845e-09 11.76603 -17.73398 12.20751 8.784684 5.14706 -21.96693 -5.033008 -88.97568 19.83039 15.85217 1.884281e-10 -8.416463e-10 -20.64867 8.404787 12.18722 3.580322
